<svg xmlns="http://www.w3.org/2000/svg" version="1.1" style="font-family:Lato, &#x27;Helvetica Neue&#x27;, Helvetica, Arial, sans-serif;font-size:18px;background-color:white;text-rendering:geometricPrecision;-webkit-font-smoothing:antialiased" width="850" height="600" viewBox="0 0 850 600"><g class="HeaderView"><g transform="translate(774, 15) scale(0.29)"><svg className="owidLog" width="210" height="120" viewBox="0 0 210 120" fill="none" xmlns="http://www.w3.org/2000/svg">
<g clip-path="url(#clip0)">
  <path d="M0 0h210v107.89H0V0z" fill="#002147" />
  <path
    d="M40.98 32.25c0 2.36-.38 4.53-1.12 6.51a14.26 14.26 0 0 1-8.1 8.4c-1.9.78-4.02 1.17-6.34 1.17-2.31 0-4.42-.39-6.33-1.17a14.31 14.31 0 0 1-8.08-8.4 18.29 18.29 0 0 1-1.12-6.51c0-2.36.38-4.53 1.12-6.5.75-1.97 1.8-3.67 3.17-5.1a14.32 14.32 0 0 1 4.9-3.34c1.92-.8 4.03-1.19 6.34-1.19 2.32 0 4.43.4 6.34 1.19 1.92.8 3.56 1.9 4.93 3.34a14.87 14.87 0 0 1 3.17 5.1 18.1 18.1 0 0 1 1.12 6.5zm-4.38 0c0-1.94-.26-3.68-.8-5.22a10.91 10.91 0 0 0-2.24-3.89 9.68 9.68 0 0 0-3.52-2.46 11.95 11.95 0 0 0-4.62-.86c-1.68 0-3.21.28-4.6.86a9.88 9.88 0 0 0-3.54 2.46 10.91 10.91 0 0 0-2.24 3.9c-.53 1.53-.8 3.27-.8 5.2 0 1.94.27 3.68.8 5.22a11.17 11.17 0 0 0 2.24 3.9 10.01 10.01 0 0 0 3.55 2.44c1.38.56 2.9.83 4.6.83s3.24-.27 4.61-.83a9.8 9.8 0 0 0 3.52-2.44 11.17 11.17 0 0 0 2.25-3.9c.53-1.54.8-3.28.8-5.21zm26.22-6.54V48H60.5c-.56 0-.9-.27-1.05-.81l-.31-2.4a12.45 12.45 0 0 1-3.26 2.6c-1.2.64-2.58.96-4.13.96-1.22 0-2.3-.2-3.24-.6a6.52 6.52 0 0 1-2.33-1.7 7.37 7.37 0 0 1-1.43-2.67c-.3-1.04-.46-2.2-.46-3.45V25.7h3.91v14.22c0 1.68.38 2.99 1.15 3.91.77.93 1.96 1.39 3.54 1.39 1.16 0 2.24-.27 3.23-.82a10.42 10.42 0 0 0 2.8-2.28V25.7h3.91zm8.61 4.47a9.94 9.94 0 0 1 2.6-3.56 5.64 5.64 0 0 1 3.76-1.3c.47 0 .92.05 1.34.15.44.1.83.27 1.17.49l-.3 2.92c-.09.37-.3.55-.66.55-.2 0-.5-.04-.9-.13a6.21 6.21 0 0 0-3.24.18 4.23 4.23 0 0 0-1.47.92c-.42.4-.81.9-1.17 1.5-.33.58-.64 1.26-.92 2.02V48H67.7V25.71h2.25c.42 0 .72.08.88.25.16.16.27.44.33.83l.26 3.39zm61.16-13.7L122.75 48h-3.82l-7.99-24.05a21.95 21.95 0 0 1-.42-1.58 38.36 38.36 0 0 1-.44 1.58L102.05 48h-3.83L88.4 16.47h3.54c.38 0 .7.1.95.29.26.2.43.43.5.73l6.52 21.9.28 1.28.29 1.46.3-1.46.38-1.27 7.41-21.91c.1-.25.26-.48.51-.69.27-.22.58-.33.95-.33h1.23c.38 0 .69.1.92.29a1.77 1.77 0 0 1 .53.73l7.4 21.9a28.4 28.4 0 0 1 .68 2.62 29.52 29.52 0 0 1 .52-2.61l6.54-21.91a1.31 1.31 0 0 1 .48-.7c.27-.21.58-.32.95-.32h3.32zm9.35 8.88c1.63 0 3.1.27 4.4.82a9.43 9.43 0 0 1 5.46 5.94c.5 1.4.74 2.98.74 4.73 0 1.76-.25 3.34-.74 4.75a9.43 9.43 0 0 1-5.46 5.92c-1.3.52-2.77.79-4.4.79-1.64 0-3.12-.27-4.44-.8a9.42 9.42 0 0 1-3.35-2.3c-.92-1-1.63-2.2-2.13-3.61-.49-1.41-.73-3-.73-4.75s.24-3.33.73-4.73c.5-1.43 1.2-2.64 2.13-3.63.93-1 2.04-1.77 3.35-2.31 1.32-.55 2.8-.82 4.44-.82zm0 19.89c2.2 0 3.84-.73 4.93-2.2 1.08-1.48 1.63-3.54 1.63-6.18 0-2.66-.55-4.72-1.63-6.2-1.09-1.49-2.73-2.23-4.93-2.23-1.12 0-2.09.2-2.93.57a5.71 5.71 0 0 0-2.06 1.65c-.55.72-.96 1.61-1.24 2.67-.26 1.04-.4 2.22-.4 3.54 0 2.64.55 4.7 1.64 6.18 1.1 1.47 2.76 2.2 4.99 2.2zm17.97-15.07a9.94 9.94 0 0 1 2.6-3.56 5.64 5.64 0 0 1 3.76-1.3c.47 0 .91.05 1.34.15.44.1.83.27 1.16.49l-.28 2.92c-.09.37-.31.55-.66.55-.2 0-.5-.04-.9-.13a6.2 6.2 0 0 0-3.24.18 4.23 4.23 0 0 0-1.47.92c-.43.4-.82.9-1.17 1.5a13.1 13.1 0 0 0-.92 2.02V48h-3.94V25.71h2.24c.43 0 .72.08.88.25.17.16.28.44.33.83l.27 3.39zm15.04-14.59V48h-3.92V15.6h3.92zm19.55 15.43a6.22 6.22 0 0 0-2.38-2.05 6.7 6.7 0 0 0-2.86-.6c-2.07 0-3.66.75-4.77 2.23-1.12 1.48-1.68 3.6-1.68 6.33 0 1.46.13 2.7.38 3.74a7.29 7.29 0 0 0 1.1 2.56 4.35 4.35 0 0 0 1.78 1.45c.7.3 1.5.46 2.4.46 1.29 0 2.41-.3 3.36-.88a9.6 9.6 0 0 0 2.67-2.49V31.02zm3.91-15.43V48h-2.33c-.56 0-.9-.27-1.06-.81l-.35-2.71a12.13 12.13 0 0 1-3.25 2.77 8.28 8.28 0 0 1-4.23 1.06 7.31 7.31 0 0 1-6.14-2.9c-.73-.96-1.3-2.15-1.69-3.57a18.35 18.35 0 0 1 .07-9.48 11.29 11.29 0 0 1 1.89-3.7 8.7 8.7 0 0 1 7.06-3.34 7.96 7.96 0 0 1 6.12 2.62V15.59h3.91zM46.61 70.71V93H42.7V70.71h3.91zm.84-7c0 .39-.08.75-.24 1.09-.15.32-.35.61-.62.88-.25.25-.55.44-.9.59a2.67 2.67 0 0 1-2.16 0 2.9 2.9 0 0 1-1.45-1.47 2.67 2.67 0 0 1 0-2.16c.15-.35.35-.65.6-.9.25-.27.53-.47.85-.62a2.67 2.67 0 0 1 2.16 0c.35.15.65.35.9.62.27.25.47.55.62.9.16.34.24.7.24 1.08zm7.97 10.24c.49-.54 1-1.04 1.54-1.48a9.85 9.85 0 0 1 3.66-1.84 8.96 8.96 0 0 1 5.43.35c.94.4 1.72.97 2.33 1.71.63.74 1.11 1.62 1.43 2.67.32 1.04.49 2.19.49 3.45V93h-3.94V78.81c0-1.69-.4-3-1.17-3.92-.76-.93-1.93-1.4-3.5-1.4-1.15 0-2.24.27-3.25.83-1 .56-1.92 1.31-2.77 2.27V93h-3.94V70.71h2.35c.56 0 .9.28 1.04.82l.3 2.42zm57.7 3.3c0 2.36-.37 4.5-1.11 6.44a14.3 14.3 0 0 1-3.17 4.98c-1.37 1.37-3 2.45-4.93 3.2-1.9.76-4.02 1.13-6.33 1.13H85.8V61.47h11.77c2.31 0 4.42.39 6.33 1.15a13.8 13.8 0 0 1 8.1 8.18 17.75 17.75 0 0 1 1.12 6.45zm-4.37 0c0-1.94-.26-3.67-.8-5.2a10.94 10.94 0 0 0-2.23-3.87 9.57 9.57 0 0 0-3.53-2.42 12.23 12.23 0 0 0-4.61-.83h-7.5v24.62h7.5c1.7 0 3.24-.28 4.61-.84a9.7 9.7 0 0 0 3.53-2.4 10.94 10.94 0 0 0 2.24-3.87c.53-1.53.8-3.26.8-5.2zm19.8 5.72c-1.8.06-3.34.2-4.62.44-1.26.22-2.3.51-3.1.88-.8.36-1.37.8-1.74 1.3-.35.5-.53 1.05-.53 1.67 0 .58.1 1.1.3 1.52a3 3 0 0 0 .76 1.05c.34.27.73.46 1.17.6a6.13 6.13 0 0 0 1.45.17 7.28 7.28 0 0 0 3.5-.81 11.95 11.95 0 0 0 2.82-2.2v-4.62zm-12.65-9.11a12.73 12.73 0 0 1 3.98-2.66c1.43-.59 3-.88 4.73-.88 1.25 0 2.36.2 3.33.61a6.81 6.81 0 0 1 3.94 4.38c.33 1.04.5 2.19.5 3.43V93h-1.74a1.8 1.8 0 0 1-.88-.18c-.2-.13-.36-.38-.48-.74l-.44-2.12-1.72 1.46a9.48 9.48 0 0 1-3.74 1.7c-.69.15-1.46.23-2.3.23-.87 0-1.69-.12-2.45-.35a5.34 5.34 0 0 1-3.34-2.93 6.64 6.64 0 0 1-.49-2.64c0-.88.25-1.72.73-2.53a6.33 6.33 0 0 1 2.35-2.17c1.09-.63 2.5-1.15 4.25-1.54 1.75-.41 3.89-.65 6.42-.7v-1.75c0-1.73-.37-3.03-1.12-3.91-.75-.9-1.84-1.34-3.28-1.34-.97 0-1.78.12-2.44.37-.64.23-1.2.5-1.7.81l-1.23.82c-.33.23-.67.35-1 .35-.27 0-.5-.07-.69-.2a2.1 2.1 0 0 1-.48-.53l-.7-1.25zm27.67 19.5c-1.76 0-3.12-.5-4.07-1.48-.94-.98-1.41-2.4-1.41-4.25V74h-2.68a.9.9 0 0 1-.6-.2c-.16-.14-.24-.36-.24-.66v-1.56l3.65-.46.9-6.89c.05-.22.14-.4.29-.52a.88.88 0 0 1 .62-.22H142v7.67h6.44V74H142v13.38c0 .94.22 1.63.68 2.09.45.45 1.04.68 1.76.68a3.21 3.21 0 0 0 1.85-.53l.55-.35c.16-.12.3-.18.41-.18.2 0 .4.13.55.38l1.15 1.87a7.45 7.45 0 0 1-2.44 1.5 8.53 8.53 0 0 1-2.95.52zm19.68-10.4c-1.8.07-3.34.21-4.62.45-1.26.22-2.3.51-3.1.88-.8.36-1.37.8-1.74 1.3-.35.5-.53 1.05-.53 1.67 0 .58.1 1.1.3 1.52a2.9 2.9 0 0 0 .76 1.05c.34.27.73.46 1.17.6a6.13 6.13 0 0 0 1.45.17 7.3 7.3 0 0 0 3.5-.81 12.04 12.04 0 0 0 2.82-2.2v-4.62zm-12.65-9.1a12.72 12.72 0 0 1 3.99-2.66c1.42-.59 3-.88 4.72-.88 1.25 0 2.36.2 3.33.61a6.81 6.81 0 0 1 3.94 4.38c.33 1.04.5 2.19.5 3.43V93h-1.74a1.8 1.8 0 0 1-.88-.18c-.2-.13-.36-.38-.48-.74l-.44-2.12-1.72 1.46a9.48 9.48 0 0 1-3.74 1.7c-.69.15-1.46.23-2.3.23-.87 0-1.69-.12-2.45-.35a5.33 5.33 0 0 1-3.34-2.93 6.62 6.62 0 0 1-.49-2.64c0-.88.25-1.72.73-2.53a6.33 6.33 0 0 1 2.35-2.17c1.09-.63 2.5-1.15 4.25-1.54 1.74-.41 3.89-.65 6.42-.7v-1.75c0-1.73-.37-3.03-1.12-3.91-.75-.9-1.84-1.34-3.28-1.34-.97 0-1.78.12-2.44.37-.64.23-1.2.5-1.7.81l-1.22.82c-.34.23-.68.35-1.02.35-.26 0-.49-.07-.68-.2a1.88 1.88 0 0 1-.48-.53l-.7-1.25zM40.98 32.25c0 2.36-.38 4.53-1.12 6.51a14.26 14.26 0 0 1-8.1 8.4c-1.9.78-4.02 1.17-6.34 1.17-2.31 0-4.42-.39-6.33-1.17a14.31 14.31 0 0 1-8.08-8.4 18.29 18.29 0 0 1-1.12-6.51c0-2.36.38-4.53 1.12-6.5.75-1.97 1.8-3.67 3.17-5.1a14.32 14.32 0 0 1 4.9-3.34c1.92-.8 4.03-1.19 6.34-1.19 2.32 0 4.43.4 6.34 1.19 1.92.8 3.56 1.9 4.93 3.34a14.87 14.87 0 0 1 3.17 5.1 18.1 18.1 0 0 1 1.12 6.5zm-4.38 0c0-1.94-.26-3.68-.8-5.22a10.91 10.91 0 0 0-2.24-3.89 9.68 9.68 0 0 0-3.52-2.46 11.95 11.95 0 0 0-4.62-.86c-1.68 0-3.21.28-4.6.86a9.88 9.88 0 0 0-3.54 2.46 10.91 10.91 0 0 0-2.24 3.9c-.53 1.53-.8 3.27-.8 5.2 0 1.94.27 3.68.8 5.22a11.17 11.17 0 0 0 2.24 3.9 10.01 10.01 0 0 0 3.55 2.44c1.38.56 2.9.83 4.6.83s3.24-.27 4.61-.83a9.8 9.8 0 0 0 3.52-2.44 11.17 11.17 0 0 0 2.25-3.9c.53-1.54.8-3.28.8-5.21zm26.22-6.54V48H60.5c-.56 0-.9-.27-1.05-.81l-.31-2.4a12.45 12.45 0 0 1-3.26 2.6c-1.2.64-2.58.96-4.13.96-1.22 0-2.3-.2-3.24-.6a6.52 6.52 0 0 1-2.33-1.7 7.37 7.37 0 0 1-1.43-2.67c-.3-1.04-.46-2.2-.46-3.45V25.7h3.91v14.22c0 1.68.38 2.99 1.15 3.91.77.93 1.96 1.39 3.54 1.39 1.16 0 2.24-.27 3.23-.82a10.42 10.42 0 0 0 2.8-2.28V25.7h3.91zm8.61 4.47a9.94 9.94 0 0 1 2.6-3.56 5.64 5.64 0 0 1 3.76-1.3c.47 0 .92.05 1.34.15.44.1.83.27 1.17.49l-.3 2.92c-.09.37-.3.55-.66.55-.2 0-.5-.04-.9-.13a6.21 6.21 0 0 0-3.24.18 4.23 4.23 0 0 0-1.47.92c-.42.4-.81.9-1.17 1.5-.33.58-.64 1.26-.92 2.02V48H67.7V25.71h2.25c.42 0 .72.08.88.25.16.16.27.44.33.83l.26 3.39zm61.16-13.7L122.75 48h-3.82l-7.99-24.05a21.95 21.95 0 0 1-.42-1.58 38.36 38.36 0 0 1-.44 1.58L102.05 48h-3.83L88.4 16.47h3.54c.38 0 .7.1.95.29.26.2.43.43.5.73l6.52 21.9.28 1.28.29 1.46.3-1.46.38-1.27 7.41-21.91c.1-.25.26-.48.51-.69.27-.22.58-.33.95-.33h1.23c.38 0 .69.1.92.29a1.77 1.77 0 0 1 .53.73l7.4 21.9a28.4 28.4 0 0 1 .68 2.62 29.52 29.52 0 0 1 .52-2.61l6.54-21.91a1.31 1.31 0 0 1 .48-.7c.27-.21.58-.32.95-.32h3.32zm9.35 8.88c1.63 0 3.1.27 4.4.82a9.43 9.43 0 0 1 5.46 5.94c.5 1.4.74 2.98.74 4.73 0 1.76-.25 3.34-.74 4.75a9.43 9.43 0 0 1-5.46 5.92c-1.3.52-2.77.79-4.4.79-1.64 0-3.12-.27-4.44-.8a9.42 9.42 0 0 1-3.35-2.3c-.92-1-1.63-2.2-2.13-3.61-.49-1.41-.73-3-.73-4.75s.24-3.33.73-4.73c.5-1.43 1.2-2.64 2.13-3.63.93-1 2.04-1.77 3.35-2.31 1.32-.55 2.8-.82 4.44-.82zm0 19.89c2.2 0 3.84-.73 4.93-2.2 1.08-1.48 1.63-3.54 1.63-6.18 0-2.66-.55-4.72-1.63-6.2-1.09-1.49-2.73-2.23-4.93-2.23-1.12 0-2.09.2-2.93.57a5.71 5.71 0 0 0-2.06 1.65c-.55.72-.96 1.61-1.24 2.67-.26 1.04-.4 2.22-.4 3.54 0 2.64.55 4.7 1.64 6.18 1.1 1.47 2.76 2.2 4.99 2.2zm17.97-15.07a9.94 9.94 0 0 1 2.6-3.56 5.64 5.64 0 0 1 3.76-1.3c.47 0 .91.05 1.34.15.44.1.83.27 1.16.49l-.28 2.92c-.09.37-.31.55-.66.55-.2 0-.5-.04-.9-.13a6.2 6.2 0 0 0-3.24.18 4.23 4.23 0 0 0-1.47.92c-.43.4-.82.9-1.17 1.5a13.1 13.1 0 0 0-.92 2.02V48h-3.94V25.71h2.24c.43 0 .72.08.88.25.17.16.28.44.33.83l.27 3.39zm15.04-14.59V48h-3.92V15.6h3.92zm19.55 15.43a6.22 6.22 0 0 0-2.38-2.05 6.7 6.7 0 0 0-2.86-.6c-2.07 0-3.66.75-4.77 2.23-1.12 1.48-1.68 3.6-1.68 6.33 0 1.46.13 2.7.38 3.74a7.29 7.29 0 0 0 1.1 2.56 4.35 4.35 0 0 0 1.78 1.45c.7.3 1.5.46 2.4.46 1.29 0 2.41-.3 3.36-.88a9.6 9.6 0 0 0 2.67-2.49V31.02zm3.91-15.43V48h-2.33c-.56 0-.9-.27-1.06-.81l-.35-2.71a12.13 12.13 0 0 1-3.25 2.77 8.28 8.28 0 0 1-4.23 1.06 7.31 7.31 0 0 1-6.14-2.9c-.73-.96-1.3-2.15-1.69-3.57a18.35 18.35 0 0 1 .07-9.48 11.29 11.29 0 0 1 1.89-3.7 8.7 8.7 0 0 1 7.06-3.34 7.96 7.96 0 0 1 6.12 2.62V15.59h3.91zM46.61 70.71V93H42.7V70.71h3.91zm.84-7c0 .39-.08.75-.24 1.09-.15.32-.35.61-.62.88-.25.25-.55.44-.9.59a2.67 2.67 0 0 1-2.16 0 2.9 2.9 0 0 1-1.45-1.47 2.67 2.67 0 0 1 0-2.16c.15-.35.35-.65.6-.9.25-.27.53-.47.85-.62a2.67 2.67 0 0 1 2.16 0c.35.15.65.35.9.62.27.25.47.55.62.9.16.34.24.7.24 1.08zm7.97 10.24c.49-.54 1-1.04 1.54-1.48a9.85 9.85 0 0 1 3.66-1.84 8.96 8.96 0 0 1 5.43.35c.94.4 1.72.97 2.33 1.71.63.74 1.11 1.62 1.43 2.67.32 1.04.49 2.19.49 3.45V93h-3.94V78.81c0-1.69-.4-3-1.17-3.92-.76-.93-1.93-1.4-3.5-1.4-1.15 0-2.24.27-3.25.83-1 .56-1.92 1.31-2.77 2.27V93h-3.94V70.71h2.35c.56 0 .9.28 1.04.82l.3 2.42zm57.7 3.3c0 2.36-.37 4.5-1.11 6.44a14.3 14.3 0 0 1-3.17 4.98c-1.37 1.37-3 2.45-4.93 3.2-1.9.76-4.02 1.13-6.33 1.13H85.8V61.47h11.77c2.31 0 4.42.39 6.33 1.15a13.8 13.8 0 0 1 8.1 8.18 17.75 17.75 0 0 1 1.12 6.45zm-4.37 0c0-1.94-.26-3.67-.8-5.2a10.94 10.94 0 0 0-2.23-3.87 9.57 9.57 0 0 0-3.53-2.42 12.23 12.23 0 0 0-4.61-.83h-7.5v24.62h7.5c1.7 0 3.24-.28 4.61-.84a9.7 9.7 0 0 0 3.53-2.4 10.94 10.94 0 0 0 2.24-3.87c.53-1.53.8-3.26.8-5.2zm19.8 5.72c-1.8.06-3.34.2-4.62.44-1.26.22-2.3.51-3.1.88-.8.36-1.37.8-1.74 1.3-.35.5-.53 1.05-.53 1.67 0 .58.1 1.1.3 1.52a3 3 0 0 0 .76 1.05c.34.27.73.46 1.17.6a6.13 6.13 0 0 0 1.45.17 7.28 7.28 0 0 0 3.5-.81 11.95 11.95 0 0 0 2.82-2.2v-4.62zm-12.65-9.11a12.73 12.73 0 0 1 3.98-2.66c1.43-.59 3-.88 4.73-.88 1.25 0 2.36.2 3.33.61a6.81 6.81 0 0 1 3.94 4.38c.33 1.04.5 2.19.5 3.43V93h-1.74a1.8 1.8 0 0 1-.88-.18c-.2-.13-.36-.38-.48-.74l-.44-2.12-1.72 1.46a9.48 9.48 0 0 1-3.74 1.7c-.69.15-1.46.23-2.3.23-.87 0-1.69-.12-2.45-.35a5.34 5.34 0 0 1-3.34-2.93 6.64 6.64 0 0 1-.49-2.64c0-.88.25-1.72.73-2.53a6.33 6.33 0 0 1 2.35-2.17c1.09-.63 2.5-1.15 4.25-1.54 1.75-.41 3.89-.65 6.42-.7v-1.75c0-1.73-.37-3.03-1.12-3.91-.75-.9-1.84-1.34-3.28-1.34-.97 0-1.78.12-2.44.37-.64.23-1.2.5-1.7.81l-1.23.82c-.33.23-.67.35-1 .35-.27 0-.5-.07-.69-.2a2.1 2.1 0 0 1-.48-.53l-.7-1.25zm27.67 19.5c-1.76 0-3.12-.5-4.07-1.48-.94-.98-1.41-2.4-1.41-4.25V74h-2.68a.9.9 0 0 1-.6-.2c-.16-.14-.24-.36-.24-.66v-1.56l3.65-.46.9-6.89c.05-.22.14-.4.29-.52a.88.88 0 0 1 .62-.22H142v7.67h6.44V74H142v13.38c0 .94.22 1.63.68 2.09.45.45 1.04.68 1.76.68a3.21 3.21 0 0 0 1.85-.53l.55-.35c.16-.12.3-.18.41-.18.2 0 .4.13.55.38l1.15 1.87a7.45 7.45 0 0 1-2.44 1.5 8.53 8.53 0 0 1-2.95.52zm19.68-10.4c-1.8.07-3.34.21-4.62.45-1.26.22-2.3.51-3.1.88-.8.36-1.37.8-1.74 1.3-.35.5-.53 1.05-.53 1.67 0 .58.1 1.1.3 1.52a2.9 2.9 0 0 0 .76 1.05c.34.27.73.46 1.17.6a6.13 6.13 0 0 0 1.45.17 7.3 7.3 0 0 0 3.5-.81 12.04 12.04 0 0 0 2.82-2.2v-4.62zm-12.65-9.1a12.72 12.72 0 0 1 3.99-2.66c1.42-.59 3-.88 4.72-.88 1.25 0 2.36.2 3.33.61a6.81 6.81 0 0 1 3.94 4.38c.33 1.04.5 2.19.5 3.43V93h-1.74a1.8 1.8 0 0 1-.88-.18c-.2-.13-.36-.38-.48-.74l-.44-2.12-1.72 1.46a9.48 9.48 0 0 1-3.74 1.7c-.69.15-1.46.23-2.3.23-.87 0-1.69-.12-2.45-.35a5.33 5.33 0 0 1-3.34-2.93 6.62 6.62 0 0 1-.49-2.64c0-.88.25-1.72.73-2.53a6.33 6.33 0 0 1 2.35-2.17c1.09-.63 2.5-1.15 4.25-1.54 1.74-.41 3.89-.65 6.42-.7v-1.75c0-1.73-.37-3.03-1.12-3.91-.75-.9-1.84-1.34-3.28-1.34-.97 0-1.78.12-2.44.37-.64.23-1.2.5-1.7.81l-1.22.82c-.34.23-.68.35-1.02.35-.26 0-.49-.07-.68-.2a1.88 1.88 0 0 1-.48-.53l-.7-1.25zM40.98 32.25c0 2.36-.38 4.53-1.12 6.51a14.26 14.26 0 0 1-8.1 8.4c-1.9.78-4.02 1.17-6.34 1.17-2.31 0-4.42-.39-6.33-1.17a14.31 14.31 0 0 1-8.08-8.4 18.29 18.29 0 0 1-1.12-6.51c0-2.36.38-4.53 1.12-6.5.75-1.97 1.8-3.67 3.17-5.1a14.32 14.32 0 0 1 4.9-3.34c1.92-.8 4.03-1.19 6.34-1.19 2.32 0 4.43.4 6.34 1.19 1.92.8 3.56 1.9 4.93 3.34a14.87 14.87 0 0 1 3.17 5.1 18.1 18.1 0 0 1 1.12 6.5zm-4.38 0c0-1.94-.26-3.68-.8-5.22a10.91 10.91 0 0 0-2.24-3.89 9.68 9.68 0 0 0-3.52-2.46 11.95 11.95 0 0 0-4.62-.86c-1.68 0-3.21.28-4.6.86a9.88 9.88 0 0 0-3.54 2.46 10.91 10.91 0 0 0-2.24 3.9c-.53 1.53-.8 3.27-.8 5.2 0 1.94.27 3.68.8 5.22a11.17 11.17 0 0 0 2.24 3.9 10.01 10.01 0 0 0 3.55 2.44c1.38.56 2.9.83 4.6.83s3.24-.27 4.61-.83a9.8 9.8 0 0 0 3.52-2.44 11.17 11.17 0 0 0 2.25-3.9c.53-1.54.8-3.28.8-5.21zm26.22-6.54V48H60.5c-.56 0-.9-.27-1.05-.81l-.31-2.4a12.45 12.45 0 0 1-3.26 2.6c-1.2.64-2.58.96-4.13.96-1.22 0-2.3-.2-3.24-.6a6.52 6.52 0 0 1-2.33-1.7 7.37 7.37 0 0 1-1.43-2.67c-.3-1.04-.46-2.2-.46-3.45V25.7h3.91v14.22c0 1.68.38 2.99 1.15 3.91.77.93 1.96 1.39 3.54 1.39 1.16 0 2.24-.27 3.23-.82a10.42 10.42 0 0 0 2.8-2.28V25.7h3.91zm8.61 4.47a9.94 9.94 0 0 1 2.6-3.56 5.64 5.64 0 0 1 3.76-1.3c.47 0 .92.05 1.34.15.44.1.83.27 1.17.49l-.3 2.92c-.09.37-.3.55-.66.55-.2 0-.5-.04-.9-.13a6.21 6.21 0 0 0-3.24.18 4.23 4.23 0 0 0-1.47.92c-.42.4-.81.9-1.17 1.5-.33.58-.64 1.26-.92 2.02V48H67.7V25.71h2.25c.42 0 .72.08.88.25.16.16.27.44.33.83l.26 3.39zm61.16-13.7L122.75 48h-3.82l-7.99-24.05a21.95 21.95 0 0 1-.42-1.58 38.36 38.36 0 0 1-.44 1.58L102.05 48h-3.83L88.4 16.47h3.54c.38 0 .7.1.95.29.26.2.43.43.5.73l6.52 21.9.28 1.28.29 1.46.3-1.46.38-1.27 7.41-21.91c.1-.25.26-.48.51-.69.27-.22.58-.33.95-.33h1.23c.38 0 .69.1.92.29a1.77 1.77 0 0 1 .53.73l7.4 21.9a28.4 28.4 0 0 1 .68 2.62 29.52 29.52 0 0 1 .52-2.61l6.54-21.91a1.31 1.31 0 0 1 .48-.7c.27-.21.58-.32.95-.32h3.32zm9.35 8.88c1.63 0 3.1.27 4.4.82a9.43 9.43 0 0 1 5.46 5.94c.5 1.4.74 2.98.74 4.73 0 1.76-.25 3.34-.74 4.75a9.43 9.43 0 0 1-5.46 5.92c-1.3.52-2.77.79-4.4.79-1.64 0-3.12-.27-4.44-.8a9.42 9.42 0 0 1-3.35-2.3c-.92-1-1.63-2.2-2.13-3.61-.49-1.41-.73-3-.73-4.75s.24-3.33.73-4.73c.5-1.43 1.2-2.64 2.13-3.63.93-1 2.04-1.77 3.35-2.31 1.32-.55 2.8-.82 4.44-.82zm0 19.89c2.2 0 3.84-.73 4.93-2.2 1.08-1.48 1.63-3.54 1.63-6.18 0-2.66-.55-4.72-1.63-6.2-1.09-1.49-2.73-2.23-4.93-2.23-1.12 0-2.09.2-2.93.57a5.71 5.71 0 0 0-2.06 1.65c-.55.72-.96 1.61-1.24 2.67-.26 1.04-.4 2.22-.4 3.54 0 2.64.55 4.7 1.64 6.18 1.1 1.47 2.76 2.2 4.99 2.2zm17.97-15.07a9.94 9.94 0 0 1 2.6-3.56 5.64 5.64 0 0 1 3.76-1.3c.47 0 .91.05 1.34.15.44.1.83.27 1.16.49l-.28 2.92c-.09.37-.31.55-.66.55-.2 0-.5-.04-.9-.13a6.2 6.2 0 0 0-3.24.18 4.23 4.23 0 0 0-1.47.92c-.43.4-.82.9-1.17 1.5a13.1 13.1 0 0 0-.92 2.02V48h-3.94V25.71h2.24c.43 0 .72.08.88.25.17.16.28.44.33.83l.27 3.39zm15.04-14.59V48h-3.92V15.6h3.92zm19.55 15.43a6.22 6.22 0 0 0-2.38-2.05 6.7 6.7 0 0 0-2.86-.6c-2.07 0-3.66.75-4.77 2.23-1.12 1.48-1.68 3.6-1.68 6.33 0 1.46.13 2.7.38 3.74a7.29 7.29 0 0 0 1.1 2.56 4.35 4.35 0 0 0 1.78 1.45c.7.3 1.5.46 2.4.46 1.29 0 2.41-.3 3.36-.88a9.6 9.6 0 0 0 2.67-2.49V31.02zm3.91-15.43V48h-2.33c-.56 0-.9-.27-1.06-.81l-.35-2.71a12.13 12.13 0 0 1-3.25 2.77 8.28 8.28 0 0 1-4.23 1.06 7.31 7.31 0 0 1-6.14-2.9c-.73-.96-1.3-2.15-1.69-3.57a18.35 18.35 0 0 1 .07-9.48 11.29 11.29 0 0 1 1.89-3.7 8.7 8.7 0 0 1 7.06-3.34 7.96 7.96 0 0 1 6.12 2.62V15.59h3.91zM46.61 70.71V93H42.7V70.71h3.91zm.84-7c0 .39-.08.75-.24 1.09-.15.32-.35.61-.62.88-.25.25-.55.44-.9.59a2.67 2.67 0 0 1-2.16 0 2.9 2.9 0 0 1-1.45-1.47 2.67 2.67 0 0 1 0-2.16c.15-.35.35-.65.6-.9.25-.27.53-.47.85-.62a2.67 2.67 0 0 1 2.16 0c.35.15.65.35.9.62.27.25.47.55.62.9.16.34.24.7.24 1.08zm7.97 10.24c.49-.54 1-1.04 1.54-1.48a9.85 9.85 0 0 1 3.66-1.84 8.96 8.96 0 0 1 5.43.35c.94.4 1.72.97 2.33 1.71.63.74 1.11 1.62 1.43 2.67.32 1.04.49 2.19.49 3.45V93h-3.94V78.81c0-1.69-.4-3-1.17-3.92-.76-.93-1.93-1.4-3.5-1.4-1.15 0-2.24.27-3.25.83-1 .56-1.92 1.31-2.77 2.27V93h-3.94V70.71h2.35c.56 0 .9.28 1.04.82l.3 2.42zm57.7 3.3c0 2.36-.37 4.5-1.11 6.44a14.3 14.3 0 0 1-3.17 4.98c-1.37 1.37-3 2.45-4.93 3.2-1.9.76-4.02 1.13-6.33 1.13H85.8V61.47h11.77c2.31 0 4.42.39 6.33 1.15a13.8 13.8 0 0 1 8.1 8.18 17.75 17.75 0 0 1 1.12 6.45zm-4.37 0c0-1.94-.26-3.67-.8-5.2a10.94 10.94 0 0 0-2.23-3.87 9.57 9.57 0 0 0-3.53-2.42 12.23 12.23 0 0 0-4.61-.83h-7.5v24.62h7.5c1.7 0 3.24-.28 4.61-.84a9.7 9.7 0 0 0 3.53-2.4 10.94 10.94 0 0 0 2.24-3.87c.53-1.53.8-3.26.8-5.2zm19.8 5.72c-1.8.06-3.34.2-4.62.44-1.26.22-2.3.51-3.1.88-.8.36-1.37.8-1.74 1.3-.35.5-.53 1.05-.53 1.67 0 .58.1 1.1.3 1.52a3 3 0 0 0 .76 1.05c.34.27.73.46 1.17.6a6.13 6.13 0 0 0 1.45.17 7.28 7.28 0 0 0 3.5-.81 11.95 11.95 0 0 0 2.82-2.2v-4.62zm-12.65-9.11a12.73 12.73 0 0 1 3.98-2.66c1.43-.59 3-.88 4.73-.88 1.25 0 2.36.2 3.33.61a6.81 6.81 0 0 1 3.94 4.38c.33 1.04.5 2.19.5 3.43V93h-1.74a1.8 1.8 0 0 1-.88-.18c-.2-.13-.36-.38-.48-.74l-.44-2.12-1.72 1.46a9.48 9.48 0 0 1-3.74 1.7c-.69.15-1.46.23-2.3.23-.87 0-1.69-.12-2.45-.35a5.34 5.34 0 0 1-3.34-2.93 6.64 6.64 0 0 1-.49-2.64c0-.88.25-1.72.73-2.53a6.33 6.33 0 0 1 2.35-2.17c1.09-.63 2.5-1.15 4.25-1.54 1.75-.41 3.89-.65 6.42-.7v-1.75c0-1.73-.37-3.03-1.12-3.91-.75-.9-1.84-1.34-3.28-1.34-.97 0-1.78.12-2.44.37-.64.23-1.2.5-1.7.81l-1.23.82c-.33.23-.67.35-1 .35-.27 0-.5-.07-.69-.2a2.1 2.1 0 0 1-.48-.53l-.7-1.25zm27.67 19.5c-1.76 0-3.12-.5-4.07-1.48-.94-.98-1.41-2.4-1.41-4.25V74h-2.68a.9.9 0 0 1-.6-.2c-.16-.14-.24-.36-.24-.66v-1.56l3.65-.46.9-6.89c.05-.22.14-.4.29-.52a.88.88 0 0 1 .62-.22H142v7.67h6.44V74H142v13.38c0 .94.22 1.63.68 2.09.45.45 1.04.68 1.76.68a3.21 3.21 0 0 0 1.85-.53l.55-.35c.16-.12.3-.18.41-.18.2 0 .4.13.55.38l1.15 1.87a7.45 7.45 0 0 1-2.44 1.5 8.53 8.53 0 0 1-2.95.52zm19.68-10.4c-1.8.07-3.34.21-4.62.45-1.26.22-2.3.51-3.1.88-.8.36-1.37.8-1.74 1.3-.35.5-.53 1.05-.53 1.67 0 .58.1 1.1.3 1.52a2.9 2.9 0 0 0 .76 1.05c.34.27.73.46 1.17.6a6.13 6.13 0 0 0 1.45.17 7.3 7.3 0 0 0 3.5-.81 12.04 12.04 0 0 0 2.82-2.2v-4.62zm-12.65-9.1a12.72 12.72 0 0 1 3.99-2.66c1.42-.59 3-.88 4.72-.88 1.25 0 2.36.2 3.33.61a6.81 6.81 0 0 1 3.94 4.38c.33 1.04.5 2.19.5 3.43V93h-1.74a1.8 1.8 0 0 1-.88-.18c-.2-.13-.36-.38-.48-.74l-.44-2.12-1.72 1.46a9.48 9.48 0 0 1-3.74 1.7c-.69.15-1.46.23-2.3.23-.87 0-1.69-.12-2.45-.35a5.33 5.33 0 0 1-3.34-2.93 6.62 6.62 0 0 1-.49-2.64c0-.88.25-1.72.73-2.53a6.33 6.33 0 0 1 2.35-2.17c1.09-.63 2.5-1.15 4.25-1.54 1.74-.41 3.89-.65 6.42-.7v-1.75c0-1.73-.37-3.03-1.12-3.91-.75-.9-1.84-1.34-3.28-1.34-.97 0-1.78.12-2.44.37-.64.23-1.2.5-1.7.81l-1.22.82c-.34.23-.68.35-1.02.35-.26 0-.49-.07-.68-.2a1.88 1.88 0 0 1-.48-.53l-.7-1.25z"
    fill="#fff"
  />
  <path fill="#D42B21" d="M0 106.79h210V120H0z" />
</g>
<defs>
  <clipPath id="clip0"><path fill="#fff" d="M0 0h210v120H0z" /></clipPath>
</defs>
</svg></g><a href="https://ourworldindata.org/grapher/literacy-rate-adults?tab=chart&amp;country=OWID_WRL~Sub-Saharan+Africa~Europe+%26+Central+Asia~Latin+America+%26+Caribbean~South+Asia~East+Asia+%26+Pacific~Middle+East+%26+North+Africa~BRA" style="font-family:&quot;Playfair Display&quot;, Georgia, &quot;Times New Roman&quot;, serif" target="_blank" rel="noopener"><text font-size="25.20" x="15.0" y="35.2" fill="#555"><tspan x="15" y="35.160000000000004">Adult literacy rate</tspan></text></a><text font-size="14.40" x="15.0" y="55.7" fill="#666"><tspan x="15" y="55.72">The share of adults aged 15 and older who can both read and write.</tspan></text></g><g class="LineChart"><defs><clipPath id="boundsClip-10"><rect x="42.562" y="66.6" width="840" height="448.79999999999995"></rect></clipPath></defs><g class="DualAxisView"><g class="HorizontalAxis"><line x1="52.6" y1="484.19999999999993" x2="52.6" y2="489.19999999999993" stroke="#999"></line><line x1="638.1" y1="484.19999999999993" x2="638.1" y2="489.19999999999993" stroke="#999"></line><line x1="141.7" y1="484.19999999999993" x2="141.7" y2="489.19999999999993" stroke="#999"></line><line x1="269" y1="484.19999999999993" x2="269" y2="489.19999999999993" stroke="#999"></line><line x1="396.3" y1="484.19999999999993" x2="396.3" y2="489.19999999999993" stroke="#999"></line><line x1="523.6" y1="484.19999999999993" x2="523.6" y2="489.19999999999993" stroke="#999"></line><text x="52.562" y="505.4" fill="#666" text-anchor="start" font-size="16.2">1973</text><text x="638.135" y="505.4" fill="#666" text-anchor="end" font-size="16.2">2019</text><text x="141.7" y="505.4" fill="#666" text-anchor="middle" font-size="16.2">1980</text><text x="269" y="505.4" fill="#666" text-anchor="middle" font-size="16.2">1990</text><text x="396.3" y="505.4" fill="#666" text-anchor="middle" font-size="16.2">2000</text><text x="523.6" y="505.4" fill="#666" text-anchor="middle" font-size="16.2">2010</text></g><g class="VerticalAxis"><text x="47.56" y="484.2" dy=".32em" text-anchor="end" fill="#666" font-size="16.2">0%</text><text x="47.56" y="401.3" dy=".32em" text-anchor="end" fill="#666" font-size="16.2">20%</text><text x="47.56" y="318.5" dy=".32em" text-anchor="end" fill="#666" font-size="16.2">40%</text><text x="47.56" y="235.6" dy=".32em" text-anchor="end" fill="#666" font-size="16.2">60%</text><text x="47.56" y="152.7" dy=".32em" text-anchor="end" fill="#666" font-size="16.2">80%</text></g><g class="AxisGridLines horizontalLines"><line x1="52.56" y1="484.2" x2="638.13" y2="484.2" stroke="#999"></line><line x1="52.56" y1="401.3" x2="638.13" y2="401.3" stroke="#ddd" stroke-dasharray="3,2"></line><line x1="52.56" y1="318.5" x2="638.13" y2="318.5" stroke="#ddd" stroke-dasharray="3,2"></line><line x1="52.56" y1="235.6" x2="638.13" y2="235.6" stroke="#ddd" stroke-dasharray="3,2"></line><line x1="52.56" y1="152.7" x2="638.13" y2="152.7" stroke="#ddd" stroke-dasharray="3,2"></line></g></g><g clip-path="url(#boundsClip-10)"><g class="LineLabels" style="cursor:default"><g class="legendMark"><g class="indicator"><path d="M642.135,76.6 H665.2778571428572 V83.35 H669.135" stroke="#999" stroke-width="0.5" fill="none"></path></g><rect x="638.135" y="76.6" width="169.055" height="13.5" fill="#fff" opacity="0"></rect><text font-size="13.50" x="673.1" y="87.4" fill="#00823F"><tspan x="673.135" y="87.39999999999999">Europe &amp; Central Asia</tspan></text></g><g class="legendMark"><g class="indicator"><path d="M642.135,87.4 H661.4207142857143 V98.85 H669.135" stroke="#999" stroke-width="0.5" fill="none"></path></g><rect x="638.135" y="92.1" width="148.67000000000002" height="13.5" fill="#fff" opacity="0"></rect><text font-size="13.50" x="673.1" y="102.9" fill="#6D3E91"><tspan x="673.135" y="102.89999999999999">East Asia &amp; Pacific</tspan></text></g><g class="legendMark"><g class="indicator"><path d="M642.135,93.5 H657.5635714285714 V114.35 H669.135" stroke="#999" stroke-width="0.5" fill="none"></path></g><rect x="638.135" y="107.6" width="196.865" height="13.5" fill="#fff" opacity="0"></rect><text font-size="13.50" x="673.1" y="118.4" fill="#B13507"><tspan x="673.135" y="118.39999999999999">Latin America &amp; Caribbean</tspan></text></g><g class="legendMark"><g class="indicator"><path d="M642.135,97.9 H653.7064285714285 V129.85 H669.135" stroke="#999" stroke-width="0.5" fill="none"></path></g><rect x="638.135" y="123.1" width="68.75" height="13.5" fill="#fff" opacity="0"></rect><text font-size="13.50" x="673.1" y="133.9" fill="#4C6A9C"><tspan x="673.135" y="133.9">Brazil</tspan></text></g><g class="legendMark"><g class="indicator"><path d="M642.135,125.9 H649.8492857142858 V145.35 H669.135" stroke="#999" stroke-width="0.5" fill="none"></path></g><rect x="638.135" y="138.6" width="70.235" height="13.5" fill="#fff" opacity="0"></rect><text font-size="13.50" x="673.1" y="149.4" fill="#CF0A66"><tspan x="673.135" y="149.4">World</tspan></text></g><g class="legendMark"><g class="indicator"><path d="M642.135,155.6 H645.9921428571429 V160.85 H669.135" stroke="#999" stroke-width="0.5" fill="none"></path></g><rect x="638.135" y="154.1" width="193.76000000000002" height="13.5" fill="#fff" opacity="0"></rect><text font-size="13.50" x="673.1" y="164.9" fill="#3C4E66"><tspan x="673.135" y="164.9">Middle East &amp; North Africa</tspan></text></g><g class="legendMark"><g class="indicator"><path d="M642.135,182 H655.635 V182 H669.135" stroke="#999" stroke-width="0.5" fill="none"></path></g><rect x="638.135" y="175.25" width="100.61" height="13.5" fill="#fff" opacity="0"></rect><text font-size="13.50" x="673.1" y="186.1" fill="#00847E"><tspan x="673.135" y="186.05">South Asia</tspan></text></g><g class="legendMark"><g class="indicator"><path d="M642.135,213 H655.635 V213 H669.135" stroke="#999" stroke-width="0.5" fill="none"></path></g><rect x="638.135" y="206.25" width="153.26" height="13.5" fill="#fff" opacity="0"></rect><text font-size="13.50" x="673.1" y="217.1" fill="#883039"><tspan x="673.135" y="217.05">Sub-Saharan Africa</tspan></text></g></g><g class="Lines"><rect x="53" y="77" width="586" height="408" fill="rgba(255,255,255,0)" opacity="0"></rect><g><path stroke-linecap="round" stroke-linejoin="round" stroke="#ddd" d="M319.9 87.8L332.6 87.2L345.3 86.6L358.1 86L370.8 85.4L383.5 85L396.3 84.7L409 84.3L421.7 83.6L434.5 83.2L447.2 82.6L459.9 82.6L472.6 82L485.4 82L498.1 81.3L510.8 80.6L523.6 79.9L536.3 78.6L549 78.2L561.8 77.9L574.5 77.7L587.2 77.5L599.9 77.1L612.7 77L625.4 76.8L638.1 76.6" fill="none" stroke-width="1"></path></g><g><path stroke-linecap="round" stroke-linejoin="round" stroke="#ddd" d="M205.3 281L218.1 279.5L230.8 276.8L243.5 274.7L256.2 272.2L269 269.4L281.7 267.7L294.4 265.8L307.2 263.3L319.9 260.2L332.6 259L345.3 256.2L358.1 252.6L370.8 250L383.5 246.6L396.3 252.3L409 248.2L421.7 246.1L434.5 244.3L447.2 237.7L459.9 241.7L472.6 236.6L485.4 246.9L498.1 246.5L510.8 243.2L523.6 240.9L536.3 234.3L549 229.6L561.8 226.1L574.5 223.4L587.2 220.9L599.9 218L612.7 216.9L625.4 214.7L638.1 213" fill="none" stroke-width="1"></path></g><g><path stroke-linecap="round" stroke-linejoin="round" stroke="#ddd" d="M141.7 175.2L396.3 126.4L447.2 117L472.6 112.9L485.4 111.3L498.1 111.2L510.8 110.1L523.6 109.7L536.3 105.5L549 105.8L561.8 105.2L574.5 104.2L587.2 102.8L599.9 99.7L612.7 98.6L625.4 97.9" fill="none" stroke-width="1"></path></g><g><path stroke-linecap="round" stroke-linejoin="round" stroke="#ddd" d="M90.8 207L103.5 206.2L116.2 204.2L128.9 202.3L141.7 201.2L154.4 198.8L167.1 196.7L179.9 194.5L192.6 192.3L205.3 190.3L218.1 188.5L230.8 186L243.5 179L256.2 177.2L269 176.3L281.7 174L294.4 172.1L307.2 170.4L319.9 168.6L332.6 166.9L345.3 165.2L358.1 156.8L370.8 151.9L383.5 150.5L396.3 149.9L409 148.6L421.7 147L434.5 144.8L447.2 143L459.9 143.4L472.6 142.3L485.4 141.1L498.1 138.9L510.8 137.7L523.6 136.1L536.3 135L549 133.2L561.8 132.3L574.5 130.5L587.2 129.8L599.9 127.9L612.7 127L625.4 126.9L638.1 125.9" fill="none" stroke-width="1"></path></g><g><path stroke-linecap="round" stroke-linejoin="round" stroke="#ddd" d="M90.8 211L103.5 210.2L116.2 206L128.9 201.8L141.7 199.8L154.4 193.3L167.1 190.2L179.9 185.4L192.6 181.5L205.3 177.7L218.1 174.4L230.8 169.6L243.5 153.4L256.2 150.7L269 151L281.7 146L294.4 143.8L307.2 141.8L319.9 139.4L332.6 137.1L345.3 135L358.1 114.1L370.8 112.7L383.5 111.2L396.3 110L409 108.3L421.7 106.7L434.5 105L447.2 103.6L459.9 102L472.6 100.2L485.4 96.2L498.1 95.1L510.8 93.7L523.6 93.6L536.3 94.4L549 93.4L561.8 93L574.5 90.9L587.2 90L599.9 89.5L612.7 88.6L625.4 88L638.1 87.4" fill="none" stroke-width="1"></path></g><g><path stroke-linecap="round" stroke-linejoin="round" stroke="#ddd" d="M78 334L90.8 334L103.5 331.3L116.2 328.6L128.9 326L141.7 323.4L154.4 323.4L167.1 318.3L179.9 315.7L192.6 313L205.3 310.3L218.1 307.6L230.8 305L243.5 301.9L256.2 298.8L269 295.8L281.7 294.2L294.4 288.9L307.2 284.8L319.9 281.6L332.6 278.4L345.3 275L358.1 271.7L370.8 251.5L383.5 248.4L396.3 245.2L409 243.4L421.7 238.9L434.5 235.2L447.2 232L459.9 232.9L472.6 232.2L485.4 228.5L498.1 220.5L510.8 217.6L523.6 210.7L536.3 208.6L549 205.5L561.8 202.4L574.5 199.4L587.2 195.6L599.9 190L612.7 187.2L625.4 184.9L638.1 182" fill="none" stroke-width="1"></path></g><g><path stroke-linecap="round" stroke-linejoin="round" stroke="#ddd" d="M65.3 157.6L78 157.6L90.8 156.3L103.5 154.6L116.2 152.9L128.9 151.3L141.7 149.9L154.4 148.3L167.1 146.8L179.9 145.2L192.6 143.7L205.3 142.3L218.1 140.8L230.8 139.6L243.5 137.7L256.2 135.8L269 134.5L281.7 132.1L294.4 129.5L307.2 126.9L319.9 124.6L332.6 122.1L345.3 120.7L358.1 119.5L370.8 117.5L383.5 116.3L396.3 115.3L409 114.9L421.7 114.5L434.5 111.3L447.2 111.4L459.9 109.4L472.6 109.3L485.4 107L498.1 106L510.8 104.4L523.6 104.5L536.3 102L549 101.1L561.8 100.9L574.5 99.1L587.2 98.3L599.9 96.4L612.7 95.9L625.4 95.3L638.1 93.5" fill="none" stroke-width="1"></path></g><g><path stroke-linecap="round" stroke-linejoin="round" stroke="#ddd" d="M52.6 306.3L65.3 304.3L78 302.1L90.8 299.9L103.5 297.4L116.2 294.6L128.9 291.6L141.7 288.5L154.4 285.3L167.1 282L179.9 279L192.6 275L205.3 270.9L218.1 266.4L230.8 263.2L243.5 258.6L256.2 254.2L269 244.2L281.7 239L294.4 234.8L307.2 231.2L319.9 227.2L332.6 220.9L345.3 215.4L358.1 211.5L370.8 206.5L383.5 202.1L396.3 197.9L409 193.2L421.7 191.3L434.5 177.8L447.2 174.1L459.9 175.8L472.6 175.2L485.4 173.1L498.1 170.3L510.8 170.7L523.6 167.3L536.3 164.1L549 153.2L561.8 154L574.5 148L587.2 155.1L599.9 150.9L612.7 146.4L625.4 157L638.1 155.6" fill="none" stroke-width="1"></path></g><g><path stroke="#00823F" stroke-linecap="round" stroke-linejoin="round" d="M319.9 87.8L332.6 87.2L345.3 86.6L358.1 86L370.8 85.4L383.5 85L396.3 84.7L409 84.3L421.7 83.6L434.5 83.2L447.2 82.6L459.9 82.6L472.6 82L485.4 82L498.1 81.3L510.8 80.6L523.6 79.9L536.3 78.6L549 78.2L561.8 77.9L574.5 77.7L587.2 77.5L599.9 77.1L612.7 77L625.4 76.8L638.1 76.6" fill="none" stroke-width="1.5"></path><g fill="#00823F"><circle cx="319.9" cy="87.8" r="2"></circle><circle cx="332.6" cy="87.2" r="2"></circle><circle cx="345.3" cy="86.6" r="2"></circle><circle cx="358.1" cy="86" r="2"></circle><circle cx="370.8" cy="85.4" r="2"></circle><circle cx="383.5" cy="85" r="2"></circle><circle cx="396.3" cy="84.7" r="2"></circle><circle cx="409" cy="84.3" r="2"></circle><circle cx="421.7" cy="83.6" r="2"></circle><circle cx="434.5" cy="83.2" r="2"></circle><circle cx="447.2" cy="82.6" r="2"></circle><circle cx="459.9" cy="82.6" r="2"></circle><circle cx="472.6" cy="82" r="2"></circle><circle cx="485.4" cy="82" r="2"></circle><circle cx="498.1" cy="81.3" r="2"></circle><circle cx="510.8" cy="80.6" r="2"></circle><circle cx="523.6" cy="79.9" r="2"></circle><circle cx="536.3" cy="78.6" r="2"></circle><circle cx="549" cy="78.2" r="2"></circle><circle cx="561.8" cy="77.9" r="2"></circle><circle cx="574.5" cy="77.7" r="2"></circle><circle cx="587.2" cy="77.5" r="2"></circle><circle cx="599.9" cy="77.1" r="2"></circle><circle cx="612.7" cy="77" r="2"></circle><circle cx="625.4" cy="76.8" r="2"></circle><circle cx="638.1" cy="76.6" r="2"></circle></g></g><g><path stroke="#883039" stroke-linecap="round" stroke-linejoin="round" d="M205.3 281L218.1 279.5L230.8 276.8L243.5 274.7L256.2 272.2L269 269.4L281.7 267.7L294.4 265.8L307.2 263.3L319.9 260.2L332.6 259L345.3 256.2L358.1 252.6L370.8 250L383.5 246.6L396.3 252.3L409 248.2L421.7 246.1L434.5 244.3L447.2 237.7L459.9 241.7L472.6 236.6L485.4 246.9L498.1 246.5L510.8 243.2L523.6 240.9L536.3 234.3L549 229.6L561.8 226.1L574.5 223.4L587.2 220.9L599.9 218L612.7 216.9L625.4 214.7L638.1 213" fill="none" stroke-width="1.5"></path><g fill="#883039"><circle cx="205.3" cy="281" r="2"></circle><circle cx="218.1" cy="279.5" r="2"></circle><circle cx="230.8" cy="276.8" r="2"></circle><circle cx="243.5" cy="274.7" r="2"></circle><circle cx="256.2" cy="272.2" r="2"></circle><circle cx="269" cy="269.4" r="2"></circle><circle cx="281.7" cy="267.7" r="2"></circle><circle cx="294.4" cy="265.8" r="2"></circle><circle cx="307.2" cy="263.3" r="2"></circle><circle cx="319.9" cy="260.2" r="2"></circle><circle cx="332.6" cy="259" r="2"></circle><circle cx="345.3" cy="256.2" r="2"></circle><circle cx="358.1" cy="252.6" r="2"></circle><circle cx="370.8" cy="250" r="2"></circle><circle cx="383.5" cy="246.6" r="2"></circle><circle cx="396.3" cy="252.3" r="2"></circle><circle cx="409" cy="248.2" r="2"></circle><circle cx="421.7" cy="246.1" r="2"></circle><circle cx="434.5" cy="244.3" r="2"></circle><circle cx="447.2" cy="237.7" r="2"></circle><circle cx="459.9" cy="241.7" r="2"></circle><circle cx="472.6" cy="236.6" r="2"></circle><circle cx="485.4" cy="246.9" r="2"></circle><circle cx="498.1" cy="246.5" r="2"></circle><circle cx="510.8" cy="243.2" r="2"></circle><circle cx="523.6" cy="240.9" r="2"></circle><circle cx="536.3" cy="234.3" r="2"></circle><circle cx="549" cy="229.6" r="2"></circle><circle cx="561.8" cy="226.1" r="2"></circle><circle cx="574.5" cy="223.4" r="2"></circle><circle cx="587.2" cy="220.9" r="2"></circle><circle cx="599.9" cy="218" r="2"></circle><circle cx="612.7" cy="216.9" r="2"></circle><circle cx="625.4" cy="214.7" r="2"></circle><circle cx="638.1" cy="213" r="2"></circle></g></g><g><path stroke="#4C6A9C" stroke-linecap="round" stroke-linejoin="round" d="M141.7 175.2L396.3 126.4L447.2 117L472.6 112.9L485.4 111.3L498.1 111.2L510.8 110.1L523.6 109.7L536.3 105.5L549 105.8L561.8 105.2L574.5 104.2L587.2 102.8L599.9 99.7L612.7 98.6L625.4 97.9" fill="none" stroke-width="1.5"></path><g fill="#4C6A9C"><circle cx="141.7" cy="175.2" r="2"></circle><circle cx="396.3" cy="126.4" r="2"></circle><circle cx="447.2" cy="117" r="2"></circle><circle cx="472.6" cy="112.9" r="2"></circle><circle cx="485.4" cy="111.3" r="2"></circle><circle cx="498.1" cy="111.2" r="2"></circle><circle cx="510.8" cy="110.1" r="2"></circle><circle cx="523.6" cy="109.7" r="2"></circle><circle cx="536.3" cy="105.5" r="2"></circle><circle cx="549" cy="105.8" r="2"></circle><circle cx="561.8" cy="105.2" r="2"></circle><circle cx="574.5" cy="104.2" r="2"></circle><circle cx="587.2" cy="102.8" r="2"></circle><circle cx="599.9" cy="99.7" r="2"></circle><circle cx="612.7" cy="98.6" r="2"></circle><circle cx="625.4" cy="97.9" r="2"></circle></g></g><g><path stroke="#CF0A66" stroke-linecap="round" stroke-linejoin="round" d="M90.8 207L103.5 206.2L116.2 204.2L128.9 202.3L141.7 201.2L154.4 198.8L167.1 196.7L179.9 194.5L192.6 192.3L205.3 190.3L218.1 188.5L230.8 186L243.5 179L256.2 177.2L269 176.3L281.7 174L294.4 172.1L307.2 170.4L319.9 168.6L332.6 166.9L345.3 165.2L358.1 156.8L370.8 151.9L383.5 150.5L396.3 149.9L409 148.6L421.7 147L434.5 144.8L447.2 143L459.9 143.4L472.6 142.3L485.4 141.1L498.1 138.9L510.8 137.7L523.6 136.1L536.3 135L549 133.2L561.8 132.3L574.5 130.5L587.2 129.8L599.9 127.9L612.7 127L625.4 126.9L638.1 125.9" fill="none" stroke-width="1.5"></path><g fill="#CF0A66"><circle cx="90.8" cy="207" r="2"></circle><circle cx="103.5" cy="206.2" r="2"></circle><circle cx="116.2" cy="204.2" r="2"></circle><circle cx="128.9" cy="202.3" r="2"></circle><circle cx="141.7" cy="201.2" r="2"></circle><circle cx="154.4" cy="198.8" r="2"></circle><circle cx="167.1" cy="196.7" r="2"></circle><circle cx="179.9" cy="194.5" r="2"></circle><circle cx="192.6" cy="192.3" r="2"></circle><circle cx="205.3" cy="190.3" r="2"></circle><circle cx="218.1" cy="188.5" r="2"></circle><circle cx="230.8" cy="186" r="2"></circle><circle cx="243.5" cy="179" r="2"></circle><circle cx="256.2" cy="177.2" r="2"></circle><circle cx="269" cy="176.3" r="2"></circle><circle cx="281.7" cy="174" r="2"></circle><circle cx="294.4" cy="172.1" r="2"></circle><circle cx="307.2" cy="170.4" r="2"></circle><circle cx="319.9" cy="168.6" r="2"></circle><circle cx="332.6" cy="166.9" r="2"></circle><circle cx="345.3" cy="165.2" r="2"></circle><circle cx="358.1" cy="156.8" r="2"></circle><circle cx="370.8" cy="151.9" r="2"></circle><circle cx="383.5" cy="150.5" r="2"></circle><circle cx="396.3" cy="149.9" r="2"></circle><circle cx="409" cy="148.6" r="2"></circle><circle cx="421.7" cy="147" r="2"></circle><circle cx="434.5" cy="144.8" r="2"></circle><circle cx="447.2" cy="143" r="2"></circle><circle cx="459.9" cy="143.4" r="2"></circle><circle cx="472.6" cy="142.3" r="2"></circle><circle cx="485.4" cy="141.1" r="2"></circle><circle cx="498.1" cy="138.9" r="2"></circle><circle cx="510.8" cy="137.7" r="2"></circle><circle cx="523.6" cy="136.1" r="2"></circle><circle cx="536.3" cy="135" r="2"></circle><circle cx="549" cy="133.2" r="2"></circle><circle cx="561.8" cy="132.3" r="2"></circle><circle cx="574.5" cy="130.5" r="2"></circle><circle cx="587.2" cy="129.8" r="2"></circle><circle cx="599.9" cy="127.9" r="2"></circle><circle cx="612.7" cy="127" r="2"></circle><circle cx="625.4" cy="126.9" r="2"></circle><circle cx="638.1" cy="125.9" r="2"></circle></g></g><g><path stroke="#6D3E91" stroke-linecap="round" stroke-linejoin="round" d="M90.8 211L103.5 210.2L116.2 206L128.9 201.8L141.7 199.8L154.4 193.3L167.1 190.2L179.9 185.4L192.6 181.5L205.3 177.7L218.1 174.4L230.8 169.6L243.5 153.4L256.2 150.7L269 151L281.7 146L294.4 143.8L307.2 141.8L319.9 139.4L332.6 137.1L345.3 135L358.1 114.1L370.8 112.7L383.5 111.2L396.3 110L409 108.3L421.7 106.7L434.5 105L447.2 103.6L459.9 102L472.6 100.2L485.4 96.2L498.1 95.1L510.8 93.7L523.6 93.6L536.3 94.4L549 93.4L561.8 93L574.5 90.9L587.2 90L599.9 89.5L612.7 88.6L625.4 88L638.1 87.4" fill="none" stroke-width="1.5"></path><g fill="#6D3E91"><circle cx="90.8" cy="211" r="2"></circle><circle cx="103.5" cy="210.2" r="2"></circle><circle cx="116.2" cy="206" r="2"></circle><circle cx="128.9" cy="201.8" r="2"></circle><circle cx="141.7" cy="199.8" r="2"></circle><circle cx="154.4" cy="193.3" r="2"></circle><circle cx="167.1" cy="190.2" r="2"></circle><circle cx="179.9" cy="185.4" r="2"></circle><circle cx="192.6" cy="181.5" r="2"></circle><circle cx="205.3" cy="177.7" r="2"></circle><circle cx="218.1" cy="174.4" r="2"></circle><circle cx="230.8" cy="169.6" r="2"></circle><circle cx="243.5" cy="153.4" r="2"></circle><circle cx="256.2" cy="150.7" r="2"></circle><circle cx="269" cy="151" r="2"></circle><circle cx="281.7" cy="146" r="2"></circle><circle cx="294.4" cy="143.8" r="2"></circle><circle cx="307.2" cy="141.8" r="2"></circle><circle cx="319.9" cy="139.4" r="2"></circle><circle cx="332.6" cy="137.1" r="2"></circle><circle cx="345.3" cy="135" r="2"></circle><circle cx="358.1" cy="114.1" r="2"></circle><circle cx="370.8" cy="112.7" r="2"></circle><circle cx="383.5" cy="111.2" r="2"></circle><circle cx="396.3" cy="110" r="2"></circle><circle cx="409" cy="108.3" r="2"></circle><circle cx="421.7" cy="106.7" r="2"></circle><circle cx="434.5" cy="105" r="2"></circle><circle cx="447.2" cy="103.6" r="2"></circle><circle cx="459.9" cy="102" r="2"></circle><circle cx="472.6" cy="100.2" r="2"></circle><circle cx="485.4" cy="96.2" r="2"></circle><circle cx="498.1" cy="95.1" r="2"></circle><circle cx="510.8" cy="93.7" r="2"></circle><circle cx="523.6" cy="93.6" r="2"></circle><circle cx="536.3" cy="94.4" r="2"></circle><circle cx="549" cy="93.4" r="2"></circle><circle cx="561.8" cy="93" r="2"></circle><circle cx="574.5" cy="90.9" r="2"></circle><circle cx="587.2" cy="90" r="2"></circle><circle cx="599.9" cy="89.5" r="2"></circle><circle cx="612.7" cy="88.6" r="2"></circle><circle cx="625.4" cy="88" r="2"></circle><circle cx="638.1" cy="87.4" r="2"></circle></g></g><g><path stroke="#00847E" stroke-linecap="round" stroke-linejoin="round" d="M78 334L90.8 334L103.5 331.3L116.2 328.6L128.9 326L141.7 323.4L154.4 323.4L167.1 318.3L179.9 315.7L192.6 313L205.3 310.3L218.1 307.6L230.8 305L243.5 301.9L256.2 298.8L269 295.8L281.7 294.2L294.4 288.9L307.2 284.8L319.9 281.6L332.6 278.4L345.3 275L358.1 271.7L370.8 251.5L383.5 248.4L396.3 245.2L409 243.4L421.7 238.9L434.5 235.2L447.2 232L459.9 232.9L472.6 232.2L485.4 228.5L498.1 220.5L510.8 217.6L523.6 210.7L536.3 208.6L549 205.5L561.8 202.4L574.5 199.4L587.2 195.6L599.9 190L612.7 187.2L625.4 184.9L638.1 182" fill="none" stroke-width="1.5"></path><g fill="#00847E"><circle cx="78" cy="334" r="2"></circle><circle cx="90.8" cy="334" r="2"></circle><circle cx="103.5" cy="331.3" r="2"></circle><circle cx="116.2" cy="328.6" r="2"></circle><circle cx="128.9" cy="326" r="2"></circle><circle cx="141.7" cy="323.4" r="2"></circle><circle cx="154.4" cy="323.4" r="2"></circle><circle cx="167.1" cy="318.3" r="2"></circle><circle cx="179.9" cy="315.7" r="2"></circle><circle cx="192.6" cy="313" r="2"></circle><circle cx="205.3" cy="310.3" r="2"></circle><circle cx="218.1" cy="307.6" r="2"></circle><circle cx="230.8" cy="305" r="2"></circle><circle cx="243.5" cy="301.9" r="2"></circle><circle cx="256.2" cy="298.8" r="2"></circle><circle cx="269" cy="295.8" r="2"></circle><circle cx="281.7" cy="294.2" r="2"></circle><circle cx="294.4" cy="288.9" r="2"></circle><circle cx="307.2" cy="284.8" r="2"></circle><circle cx="319.9" cy="281.6" r="2"></circle><circle cx="332.6" cy="278.4" r="2"></circle><circle cx="345.3" cy="275" r="2"></circle><circle cx="358.1" cy="271.7" r="2"></circle><circle cx="370.8" cy="251.5" r="2"></circle><circle cx="383.5" cy="248.4" r="2"></circle><circle cx="396.3" cy="245.2" r="2"></circle><circle cx="409" cy="243.4" r="2"></circle><circle cx="421.7" cy="238.9" r="2"></circle><circle cx="434.5" cy="235.2" r="2"></circle><circle cx="447.2" cy="232" r="2"></circle><circle cx="459.9" cy="232.9" r="2"></circle><circle cx="472.6" cy="232.2" r="2"></circle><circle cx="485.4" cy="228.5" r="2"></circle><circle cx="498.1" cy="220.5" r="2"></circle><circle cx="510.8" cy="217.6" r="2"></circle><circle cx="523.6" cy="210.7" r="2"></circle><circle cx="536.3" cy="208.6" r="2"></circle><circle cx="549" cy="205.5" r="2"></circle><circle cx="561.8" cy="202.4" r="2"></circle><circle cx="574.5" cy="199.4" r="2"></circle><circle cx="587.2" cy="195.6" r="2"></circle><circle cx="599.9" cy="190" r="2"></circle><circle cx="612.7" cy="187.2" r="2"></circle><circle cx="625.4" cy="184.9" r="2"></circle><circle cx="638.1" cy="182" r="2"></circle></g></g><g><path stroke="#B13507" stroke-linecap="round" stroke-linejoin="round" d="M65.3 157.6L78 157.6L90.8 156.3L103.5 154.6L116.2 152.9L128.9 151.3L141.7 149.9L154.4 148.3L167.1 146.8L179.9 145.2L192.6 143.7L205.3 142.3L218.1 140.8L230.8 139.6L243.5 137.7L256.2 135.8L269 134.5L281.7 132.1L294.4 129.5L307.2 126.9L319.9 124.6L332.6 122.1L345.3 120.7L358.1 119.5L370.8 117.5L383.5 116.3L396.3 115.3L409 114.9L421.7 114.5L434.5 111.3L447.2 111.4L459.9 109.4L472.6 109.3L485.4 107L498.1 106L510.8 104.4L523.6 104.5L536.3 102L549 101.1L561.8 100.9L574.5 99.1L587.2 98.3L599.9 96.4L612.7 95.9L625.4 95.3L638.1 93.5" fill="none" stroke-width="1.5"></path><g fill="#B13507"><circle cx="65.3" cy="157.6" r="2"></circle><circle cx="78" cy="157.6" r="2"></circle><circle cx="90.8" cy="156.3" r="2"></circle><circle cx="103.5" cy="154.6" r="2"></circle><circle cx="116.2" cy="152.9" r="2"></circle><circle cx="128.9" cy="151.3" r="2"></circle><circle cx="141.7" cy="149.9" r="2"></circle><circle cx="154.4" cy="148.3" r="2"></circle><circle cx="167.1" cy="146.8" r="2"></circle><circle cx="179.9" cy="145.2" r="2"></circle><circle cx="192.6" cy="143.7" r="2"></circle><circle cx="205.3" cy="142.3" r="2"></circle><circle cx="218.1" cy="140.8" r="2"></circle><circle cx="230.8" cy="139.6" r="2"></circle><circle cx="243.5" cy="137.7" r="2"></circle><circle cx="256.2" cy="135.8" r="2"></circle><circle cx="269" cy="134.5" r="2"></circle><circle cx="281.7" cy="132.1" r="2"></circle><circle cx="294.4" cy="129.5" r="2"></circle><circle cx="307.2" cy="126.9" r="2"></circle><circle cx="319.9" cy="124.6" r="2"></circle><circle cx="332.6" cy="122.1" r="2"></circle><circle cx="345.3" cy="120.7" r="2"></circle><circle cx="358.1" cy="119.5" r="2"></circle><circle cx="370.8" cy="117.5" r="2"></circle><circle cx="383.5" cy="116.3" r="2"></circle><circle cx="396.3" cy="115.3" r="2"></circle><circle cx="409" cy="114.9" r="2"></circle><circle cx="421.7" cy="114.5" r="2"></circle><circle cx="434.5" cy="111.3" r="2"></circle><circle cx="447.2" cy="111.4" r="2"></circle><circle cx="459.9" cy="109.4" r="2"></circle><circle cx="472.6" cy="109.3" r="2"></circle><circle cx="485.4" cy="107" r="2"></circle><circle cx="498.1" cy="106" r="2"></circle><circle cx="510.8" cy="104.4" r="2"></circle><circle cx="523.6" cy="104.5" r="2"></circle><circle cx="536.3" cy="102" r="2"></circle><circle cx="549" cy="101.1" r="2"></circle><circle cx="561.8" cy="100.9" r="2"></circle><circle cx="574.5" cy="99.1" r="2"></circle><circle cx="587.2" cy="98.3" r="2"></circle><circle cx="599.9" cy="96.4" r="2"></circle><circle cx="612.7" cy="95.9" r="2"></circle><circle cx="625.4" cy="95.3" r="2"></circle><circle cx="638.1" cy="93.5" r="2"></circle></g></g><g><path stroke="#3C4E66" stroke-linecap="round" stroke-linejoin="round" d="M52.6 306.3L65.3 304.3L78 302.1L90.8 299.9L103.5 297.4L116.2 294.6L128.9 291.6L141.7 288.5L154.4 285.3L167.1 282L179.9 279L192.6 275L205.3 270.9L218.1 266.4L230.8 263.2L243.5 258.6L256.2 254.2L269 244.2L281.7 239L294.4 234.8L307.2 231.2L319.9 227.2L332.6 220.9L345.3 215.4L358.1 211.5L370.8 206.5L383.5 202.1L396.3 197.9L409 193.2L421.7 191.3L434.5 177.8L447.2 174.1L459.9 175.8L472.6 175.2L485.4 173.1L498.1 170.3L510.8 170.7L523.6 167.3L536.3 164.1L549 153.2L561.8 154L574.5 148L587.2 155.1L599.9 150.9L612.7 146.4L625.4 157L638.1 155.6" fill="none" stroke-width="1.5"></path><g fill="#3C4E66"><circle cx="52.6" cy="306.3" r="2"></circle><circle cx="65.3" cy="304.3" r="2"></circle><circle cx="78" cy="302.1" r="2"></circle><circle cx="90.8" cy="299.9" r="2"></circle><circle cx="103.5" cy="297.4" r="2"></circle><circle cx="116.2" cy="294.6" r="2"></circle><circle cx="128.9" cy="291.6" r="2"></circle><circle cx="141.7" cy="288.5" r="2"></circle><circle cx="154.4" cy="285.3" r="2"></circle><circle cx="167.1" cy="282" r="2"></circle><circle cx="179.9" cy="279" r="2"></circle><circle cx="192.6" cy="275" r="2"></circle><circle cx="205.3" cy="270.9" r="2"></circle><circle cx="218.1" cy="266.4" r="2"></circle><circle cx="230.8" cy="263.2" r="2"></circle><circle cx="243.5" cy="258.6" r="2"></circle><circle cx="256.2" cy="254.2" r="2"></circle><circle cx="269" cy="244.2" r="2"></circle><circle cx="281.7" cy="239" r="2"></circle><circle cx="294.4" cy="234.8" r="2"></circle><circle cx="307.2" cy="231.2" r="2"></circle><circle cx="319.9" cy="227.2" r="2"></circle><circle cx="332.6" cy="220.9" r="2"></circle><circle cx="345.3" cy="215.4" r="2"></circle><circle cx="358.1" cy="211.5" r="2"></circle><circle cx="370.8" cy="206.5" r="2"></circle><circle cx="383.5" cy="202.1" r="2"></circle><circle cx="396.3" cy="197.9" r="2"></circle><circle cx="409" cy="193.2" r="2"></circle><circle cx="421.7" cy="191.3" r="2"></circle><circle cx="434.5" cy="177.8" r="2"></circle><circle cx="447.2" cy="174.1" r="2"></circle><circle cx="459.9" cy="175.8" r="2"></circle><circle cx="472.6" cy="175.2" r="2"></circle><circle cx="485.4" cy="173.1" r="2"></circle><circle cx="498.1" cy="170.3" r="2"></circle><circle cx="510.8" cy="170.7" r="2"></circle><circle cx="523.6" cy="167.3" r="2"></circle><circle cx="536.3" cy="164.1" r="2"></circle><circle cx="549" cy="153.2" r="2"></circle><circle cx="561.8" cy="154" r="2"></circle><circle cx="574.5" cy="148" r="2"></circle><circle cx="587.2" cy="155.1" r="2"></circle><circle cx="599.9" cy="150.9" r="2"></circle><circle cx="612.7" cy="146.4" r="2"></circle><circle cx="625.4" cy="157" r="2"></circle><circle cx="638.1" cy="155.6" r="2"></circle></g></g></g></g></g><g class="SourcesFooter" style="fill:#777"><g style="fill:#777"><text font-size="12.60" x="15.0" y="540.5"><tspan x="15" y="540.48">Source: UNESCO (via World Bank)</tspan></text></g><text font-size="12.60" x="15.0" y="555.1"><tspan x="15" y="555.08">Note: Under the UNESCO metric, someone who is literate can, with understanding, read and write a short, simple statement on their everyday</tspan><tspan x="15" y="568.94">life. However, definitions and criteria of literacy can vary by country. You can find further discussion on &#x27;How is literacy measured?&#x27; in our post</tspan><tspan x="15" y="582.8000000000001">here: https://ourworldindata.org/how-is-literacy-measured</tspan></text><text font-size="12.60" x="626.6" y="540.5"><tspan x="626.596" y="540.48"><a target='_blank' style='fill: #777;' href='https://ourworldindata.org/literacy'>OurWorldInData.org/literacy</a> • <a style="fill: #777;" class="cclogo" href="http://creativecommons.org/licenses/by/4.0/deed.en_US" target="_blank">CC BY</a></tspan></text></g></svg>